<svg width="1446" height="323" viewBox="0 0 1446 323" fill="none" xmlns="http://www.w3.org/2000/svg">
<path d="M395.539 68.9141C395.93 66.9609 396.19 65.3984 396.32 64.2266C396.451 62.9245 395.995 61.5573 394.953 60.125C395.474 58.0417 395.865 56.4141 396.125 55.2422C396.516 54.0703 396.581 52.4427 396.32 50.3594C397.492 46.974 399.25 44.1094 401.594 41.7656C404.068 39.4219 406.737 37.4688 409.602 35.9062C412.466 34.2135 415.461 32.8464 418.586 31.8047C421.711 30.6328 424.641 29.6562 427.375 28.875C427.375 28.3542 427.115 28.0938 426.594 28.0938C426.073 28.0938 425.943 27.7682 426.203 27.1172C433.234 25.8151 440.266 23.9271 447.297 21.4531C454.458 18.9792 461.75 16.7656 469.172 14.8125C476.594 12.8594 484.211 11.6875 492.023 11.2969C499.836 10.776 508.039 11.7526 516.633 14.2266C517.154 15.7891 517.87 17.2865 518.781 18.7188C519.693 20.151 520.604 21.5833 521.516 23.0156C522.557 24.3177 523.469 25.6198 524.25 26.9219C525.031 28.224 525.487 29.5911 525.617 31.0234C527.18 32.4557 528.417 34.0182 529.328 35.7109C530.37 37.2734 530.565 39.4219 529.914 42.1562C528.482 43.1979 526.984 44.2396 525.422 45.2812C523.859 46.3229 522.232 47.2995 520.539 48.2109C514.68 46.7786 508.82 46.2578 502.961 46.6484C497.102 47.0391 491.828 47.4948 487.141 48.0156C485.708 46.4531 484.016 45.737 482.062 45.8672C480.109 45.8672 478.026 46.1927 475.812 46.8438C473.729 47.3646 471.646 47.9505 469.562 48.6016C467.479 49.1224 465.526 49.2526 463.703 48.9922C462.271 50.2943 460.383 51.2057 458.039 51.7266C455.695 52.1172 453.221 52.4427 450.617 52.7031C450.487 53.3542 450.617 53.8099 451.008 54.0703C451.398 54.3307 451.464 54.8516 451.203 55.6328C452.115 56.8047 453.352 57.651 454.914 58.1719C456.477 58.5625 458.039 58.9531 459.602 59.3438C461.294 59.7344 462.792 60.3203 464.094 61.1016C465.396 61.7526 466.242 62.8594 466.633 64.4219C468.977 64.5521 470.995 65.2031 472.688 66.375C474.38 67.4167 475.812 68.7188 476.984 70.2812C478.156 71.8438 479.003 73.5365 479.523 75.3594C480.044 77.0521 480.24 78.6146 480.109 80.0469C480.63 81.349 481.151 81.8698 481.672 81.6094C482.323 81.349 483.039 81.6745 483.82 82.5859C484.341 84.5391 485.513 86.6224 487.336 88.8359C489.289 90.9193 490.786 93.1979 491.828 95.6719C492.089 99.5781 492.284 103.094 492.414 106.219C492.674 109.344 492.154 112.404 490.852 115.398C488.638 121.128 485.448 126.271 481.281 130.828C477.115 135.385 472.362 139.422 467.023 142.938C461.815 146.323 456.281 149.318 450.422 151.922C444.562 154.396 438.768 156.479 433.039 158.172C432.518 158.042 431.867 158.042 431.086 158.172C430.435 158.302 430.305 157.911 430.695 157C429.523 158.042 428.156 158.693 426.594 158.953C425.161 159.214 423.534 159.279 421.711 159.148C420.018 159.148 418.26 159.083 416.438 158.953C414.745 158.823 413.052 158.888 411.359 159.148C410.318 158.107 409.341 157.065 408.43 156.023C407.648 154.982 406.997 153.745 406.477 152.312C405.826 152.182 405.5 151.792 405.5 151.141C405.63 150.359 405.37 149.969 404.719 149.969C404.719 149.448 404.784 149.057 404.914 148.797C405.044 148.536 405.174 148.276 405.305 148.016C405.826 147.625 406.021 147.365 405.891 147.234C405.891 146.974 405.695 146.779 405.305 146.648C405.044 146.388 404.719 146.128 404.328 145.867C404.068 145.607 404.003 145.281 404.133 144.891C404.784 143.719 404.979 142.352 404.719 140.789C404.589 139.096 404.458 137.404 404.328 135.711C404.198 134.018 404.328 132.456 404.719 131.023C405.109 129.461 406.216 128.159 408.039 127.117C413.378 127.638 418.391 127.378 423.078 126.336C427.896 125.294 432.388 123.862 436.555 122.039C440.852 120.216 444.888 118.263 448.664 116.18C452.57 113.966 456.346 111.948 459.992 110.125C460.383 108.823 460.969 107.716 461.75 106.805C462.661 105.893 463.573 105.047 464.484 104.266C465.396 103.354 466.242 102.443 467.023 101.531C467.805 100.49 468.391 99.2526 468.781 97.8203C468.911 97.2995 468.911 96.9089 468.781 96.6484C468.651 96.388 468.456 96.1927 468.195 96.0625C467.935 95.8021 467.674 95.5417 467.414 95.2812C467.154 95.0208 467.023 94.6302 467.023 94.1094C466.633 93.9792 466.242 93.849 465.852 93.7188C465.591 93.5885 465.331 93.5234 465.07 93.5234C461.685 91.8307 458.104 90.3984 454.328 89.2266C450.552 88.0547 447.362 86.7526 444.758 85.3203C443.195 86.362 441.633 86.6224 440.07 86.1016C438.508 85.5807 436.62 85.0599 434.406 84.5391C428.938 84.2786 423.729 83.7578 418.781 82.9766C413.964 82.1953 409.276 80.8281 404.719 78.875C404.458 78.0938 404.133 77.4427 403.742 76.9219C403.352 76.2708 402.44 76.0755 401.008 76.3359C400.096 75.0339 399.12 73.862 398.078 72.8203C397.167 71.6484 396.32 70.3464 395.539 68.9141ZM503.156 138.445L505.695 136.492L505.891 132.391C509.146 124.448 512.466 116.831 515.852 109.539C519.367 102.247 523.013 94.7604 526.789 87.0781C527.961 84.6042 529.133 82.1302 530.305 79.6562C531.607 77.1823 532.844 74.6432 534.016 72.0391C533.885 71.5182 533.82 70.9974 533.82 70.4766C533.82 69.8255 533.951 69.1094 534.211 68.3281C536.034 65.724 537.466 63.3802 538.508 61.2969C539.68 59.2135 540.786 57.0651 541.828 54.8516C543 52.2474 544.237 49.6432 545.539 47.0391C546.971 44.4349 548.729 41.8958 550.812 39.4219L552.18 37.4688L554.328 37.6641C554.849 37.4036 555.37 37.2083 555.891 37.0781C556.542 36.8177 557.323 36.6875 558.234 36.6875L561.75 37.2734C566.047 35.3203 569.823 32.5208 573.078 28.875C576.464 25.099 579.849 20.6068 583.234 15.3984L585.578 12.0781L588.703 14.0312C589.354 14.4219 590.396 14.8125 591.828 15.2031C593.26 15.5938 594.758 16.0495 596.32 16.5703C599.055 17.2214 601.724 18.0026 604.328 18.9141C606.932 19.6953 608.951 20.8021 610.383 22.2344L611.359 23.9922C611.62 25.4245 611.815 26.7266 611.945 27.8984C612.206 29.0703 612.466 30.2422 612.727 31.4141C613.247 34.1484 613.703 36.8828 614.094 39.6172C614.484 42.2214 614.745 45.151 614.875 48.4062C615.526 51.0104 616.112 53.6797 616.633 56.4141C617.284 59.0182 617.87 61.6224 618.391 64.2266C619.042 68.0026 619.758 71.6484 620.539 75.1641C621.32 78.5495 622.362 81.8047 623.664 84.9297C624.966 84.9297 625.747 84.9948 626.008 85.125C627.57 84.474 629.393 84.0833 631.477 83.9531L634.016 83.7578L634.797 86.1016C635.057 86.4922 635.383 86.8828 635.773 87.2734C636.164 87.6641 636.62 88.0547 637.141 88.4453C639.224 88.5755 640.721 89.0312 641.633 89.8125C642.674 90.4635 643.521 91.1146 644.172 91.7656C644.432 92.026 644.758 92.3516 645.148 92.7422C645.539 93.0026 645.865 93.1979 646.125 93.3281L649.641 94.6953L647.688 98.4062C646.255 101.141 644.042 103.81 641.047 106.414C638.182 109.018 634.927 111.167 631.281 112.859C631.542 113.771 631.672 114.617 631.672 115.398C631.802 116.18 631.997 117.091 632.258 118.133C632.779 120.737 633.169 123.471 633.43 126.336C633.82 129.07 633.82 131.935 633.43 134.93C632.128 138.315 630.565 141.375 628.742 144.109C627.049 146.714 624.966 149.122 622.492 151.336C620.148 153.419 617.479 155.177 614.484 156.609C611.49 157.911 608.365 158.628 605.109 158.758C603.286 158.367 601.919 157.911 601.008 157.391C600.227 156.87 599.51 156.349 598.859 155.828C597.818 155.047 596.971 154.526 596.32 154.266L593.781 153.094L594.562 150.164C594.953 149.122 594.888 148.211 594.367 147.43C593.977 146.648 593.065 145.607 591.633 144.305C591.112 143.914 590.656 143.523 590.266 143.133C589.875 142.612 589.419 142.091 588.898 141.57L584.992 137.078L591.438 135.32C595.344 134.279 597.948 132.977 599.25 131.414C600.552 129.721 601.073 126.792 600.812 122.625C597.557 121.974 594.888 121.909 592.805 122.43C590.721 122.82 588.638 123.276 586.555 123.797C583.56 124.578 580.63 125.294 577.766 125.945C574.901 126.466 571.776 126.727 568.391 126.727C566.177 126.727 563.833 126.531 561.359 126.141L559.211 125.945L558.625 123.797C558.625 123.536 558.43 123.276 558.039 123.016C557.779 122.625 557.518 122.299 557.258 122.039C556.607 121.258 555.826 120.216 554.914 118.914C554.003 117.612 553.807 115.984 554.328 114.031C553.417 112.599 552.896 111.102 552.766 109.539C552.245 110.581 551.789 111.622 551.398 112.664C551.138 113.576 550.878 114.487 550.617 115.398L549.836 117.938L547.297 118.328C547.036 118.589 546.776 118.979 546.516 119.5C546.385 120.021 546.385 120.411 546.516 120.672L547.297 122.82L545.344 124.578C545.083 124.969 544.758 125.294 544.367 125.555C543.977 125.815 543.651 126.076 543.391 126.336C543.13 127.768 542.74 129.135 542.219 130.438C541.828 131.74 541.372 133.042 540.852 134.344C540.201 136.427 539.549 138.445 538.898 140.398C538.378 142.352 538.117 144.305 538.117 146.258L537.336 148.797C536.685 149.839 535.839 150.62 534.797 151.141C533.885 151.661 532.974 152.117 532.062 152.508C530.76 153.029 529.849 153.549 529.328 154.07L528.742 156.609L525.812 157C524.12 157.391 522.883 157.651 522.102 157.781C521.451 157.911 520.669 157.977 519.758 157.977L517.219 157.781C515.656 156.219 514.354 155.047 513.312 154.266C512.401 153.354 511.294 152.573 509.992 151.922L508.82 150.359C508.299 149.318 507.974 148.406 507.844 147.625C507.714 146.714 507.518 145.802 507.258 144.891C506.997 143.198 506.607 142.026 506.086 141.375L503.156 138.445ZM565.461 87.6641C563.638 90.2682 561.88 93.0026 560.188 95.8672C561.099 95.737 561.945 95.6719 562.727 95.6719C563.638 95.6719 564.549 95.6068 565.461 95.4766C570.018 95.2161 574.25 94.8906 578.156 94.5C582.062 94.1094 586.294 93.4583 590.852 92.5469C589.81 87.7292 588.638 82.8464 587.336 77.8984C586.164 72.8203 584.862 67.7422 583.43 62.6641L582.453 64.6172C579.198 68.1328 576.073 71.9089 573.078 75.9453C570.083 79.9818 567.609 83.8229 565.656 87.4688L565.461 87.6641ZM657.258 117.352C653.352 115.138 650.357 112.013 648.273 107.977C646.19 103.94 645.018 100.099 644.758 96.4531C645.148 93.3281 645.995 90.9193 647.297 89.2266C648.469 87.4036 649.901 85.9714 651.594 84.9297C653.286 83.7578 655.044 82.9115 656.867 82.3906C658.69 81.7396 660.448 81.2188 662.141 80.8281L665.07 81.8047C665.721 82.4557 666.372 83.0417 667.023 83.5625C667.805 84.0833 668.521 84.6042 669.172 85.125C670.474 84.6042 671.255 83.8229 671.516 82.7812C671.906 81.7396 672.297 80.6979 672.688 79.6562C673.078 78.224 673.534 76.7917 674.055 75.3594C674.576 73.9271 675.227 72.4948 676.008 71.0625C675.878 69.8906 675.943 68.849 676.203 67.9375C676.464 67.026 676.724 66.2448 676.984 65.5938C676.203 64.9427 675.617 64.6172 675.227 64.6172C674.966 64.487 674.445 64.2917 673.664 64.0312C673.273 64.0312 672.883 64.0312 672.492 64.0312C672.102 63.901 671.646 63.7708 671.125 63.6406C669.172 62.2083 667.87 61.0365 667.219 60.125C666.698 59.0833 666.112 58.0417 665.461 57C664.81 55.9583 664.224 55.0469 663.703 54.2656C663.182 53.4844 662.596 52.7682 661.945 52.1172L659.602 50.5547L660.773 48.2109C661.034 47.9505 661.164 47.625 661.164 47.2344C661.164 46.7135 660.904 45.9974 660.383 45.0859C659.992 43.3932 659.927 42.1562 660.188 41.375L660.578 39.0312C661.88 37.3385 662.596 36.362 662.727 36.1016L664.68 34.1484C667.674 33.3672 670.734 32.5208 673.859 31.6094C676.984 30.5677 680.044 29.526 683.039 28.4844C686.034 27.4427 689.094 26.401 692.219 25.3594C695.344 24.3177 698.469 23.4062 701.594 22.625C702.635 21.7135 703.742 21.1927 704.914 21.0625C706.216 20.8021 707.388 20.6068 708.43 20.4766C709.341 20.4766 710.188 20.4115 710.969 20.2812C711.75 20.151 712.336 19.8255 712.727 19.3047C714.94 18.5234 717.089 17.8724 719.172 17.3516C723.078 16.3099 728.221 15.0729 734.602 13.6406C740.982 12.2083 748.143 11.1667 756.086 10.5156L760.188 10.3203C760.969 10.4505 761.75 10.5156 762.531 10.5156C763.312 10.3854 764.094 10.3203 764.875 10.3203C771.646 10.3203 776.138 12.4036 778.352 16.5703C779.654 17.2214 780.826 18.0677 781.867 19.1094C782.909 20.0208 783.885 20.9323 784.797 21.8438C785.448 22.4948 786.034 23.0807 786.555 23.6016C787.076 23.9922 787.531 24.3177 787.922 24.5781L789.484 26.1406C790.917 29.2656 791.177 32.3255 790.266 35.3203C789.484 36.8828 788.638 37.7943 787.727 38.0547C786.815 38.3151 785.904 38.5755 784.992 38.8359L782.453 40.2031C780.76 40.0729 779.458 40.0078 778.547 40.0078C777.766 40.0078 776.854 40.0078 775.812 40.0078C771.906 40.0078 767.349 40.2682 762.141 40.7891C757.062 41.1797 751.854 41.8307 746.516 42.7422C741.177 43.5234 735.969 44.5651 730.891 45.8672C725.812 47.0391 721.385 48.3411 717.609 49.7734C716.568 50.5547 715.201 51.2708 713.508 51.9219C713.117 52.0521 712.531 52.3776 711.75 52.8984C711.88 53.9401 711.88 54.9818 711.75 56.0234C711.62 56.9349 711.424 57.8464 711.164 58.7578C711.034 59.4089 710.904 60.125 710.773 60.9062C710.773 61.5573 710.708 62.2734 710.578 63.0547C707.844 66.3099 706.542 70.151 706.672 74.5781L705.695 76.5312C705.174 77.0521 704.719 77.8333 704.328 78.875C704.068 79.7865 704.068 80.763 704.328 81.8047L705.109 84.1484C707.714 83.888 710.253 83.6276 712.727 83.3672C715.331 82.9766 718.065 82.5859 720.93 82.1953C724.576 81.5443 728.221 81.0234 731.867 80.6328C735.643 80.112 739.549 79.8516 743.586 79.8516H751.203L749.445 81.6094L751.594 81.8047L750.422 84.9297C751.333 85.3203 751.984 85.6458 752.375 85.9062C752.896 86.0365 753.352 86.2318 753.742 86.4922L755.109 88.4453C755.76 88.8359 756.346 89.487 756.867 90.3984C757.388 91.1797 757.714 92.2865 757.844 93.7188L757.258 95.6719L748.078 107.391L746.906 108.953L744.953 108.367C742.479 108.237 740.135 108.497 737.922 109.148C736.88 109.409 735.773 109.734 734.602 110.125C733.43 110.385 732.258 110.516 731.086 110.516C727.961 111.036 725.357 111.492 723.273 111.883C721.19 112.143 719.107 112.404 717.023 112.664C714.159 113.185 711.359 113.706 708.625 114.227C706.021 114.617 703.547 115.268 701.203 116.18C699.771 116.31 698.924 116.375 698.664 116.375C698.404 116.245 698.143 116.18 697.883 116.18C696.581 116.18 695.279 116.375 693.977 116.766C692.674 117.156 691.438 117.547 690.266 117.938C689.484 118.589 688.964 119.305 688.703 120.086C688.443 120.737 688.182 121.453 687.922 122.234C687.661 123.146 687.271 124.057 686.75 124.969C686.359 125.75 685.839 126.596 685.188 127.508L685.383 131.023C684.211 131.284 683.625 131.479 683.625 131.609C683.625 131.609 683.56 131.609 683.43 131.609C683.43 132.651 683.234 133.628 682.844 134.539C682.583 135.451 682.323 136.297 682.062 137.078C681.802 137.599 681.607 138.055 681.477 138.445C681.346 138.836 681.281 139.227 681.281 139.617C682.583 141.961 682.909 144.63 682.258 147.625C681.737 150.099 680.76 152.312 679.328 154.266C677.896 156.089 676.203 157.521 674.25 158.562C672.167 158.823 670.604 158.758 669.562 158.367C668.651 157.977 667.674 157.586 666.633 157.195C665.982 156.935 665.331 156.74 664.68 156.609C664.029 156.349 663.378 156.154 662.727 156.023L660.383 154.07C659.992 153.289 659.536 152.573 659.016 151.922C658.495 151.141 657.974 150.359 657.453 149.578C656.802 148.667 656.151 147.755 655.5 146.844C654.849 145.932 654.263 144.891 653.742 143.719C652.831 139.161 652.635 135.385 653.156 132.391C653.807 129.266 654.654 126.206 655.695 123.211C655.956 122.169 656.216 121.193 656.477 120.281C656.737 119.37 656.997 118.393 657.258 117.352ZM756.672 138.445L759.211 136.492L759.406 132.391C762.661 124.448 765.982 116.831 769.367 109.539C772.883 102.247 776.529 94.7604 780.305 87.0781C781.477 84.6042 782.648 82.1302 783.82 79.6562C785.122 77.1823 786.359 74.6432 787.531 72.0391C787.401 71.5182 787.336 70.9974 787.336 70.4766C787.336 69.8255 787.466 69.1094 787.727 68.3281C789.549 65.724 790.982 63.3802 792.023 61.2969C793.195 59.2135 794.302 57.0651 795.344 54.8516C796.516 52.2474 797.753 49.6432 799.055 47.0391C800.487 44.4349 802.245 41.8958 804.328 39.4219L805.695 37.4688L807.844 37.6641C808.365 37.4036 808.885 37.2083 809.406 37.0781C810.057 36.8177 810.839 36.6875 811.75 36.6875L815.266 37.2734C819.562 35.3203 823.339 32.5208 826.594 28.875C829.979 25.099 833.365 20.6068 836.75 15.3984L839.094 12.0781L842.219 14.0312C842.87 14.4219 843.911 14.8125 845.344 15.2031C846.776 15.5938 848.273 16.0495 849.836 16.5703C852.57 17.2214 855.24 18.0026 857.844 18.9141C860.448 19.6953 862.466 20.8021 863.898 22.2344L864.875 23.9922C865.135 25.4245 865.331 26.7266 865.461 27.8984C865.721 29.0703 865.982 30.2422 866.242 31.4141C866.763 34.1484 867.219 36.8828 867.609 39.6172C868 42.2214 868.26 45.151 868.391 48.4062C869.042 51.0104 869.628 53.6797 870.148 56.4141C870.799 59.0182 871.385 61.6224 871.906 64.2266C872.557 68.0026 873.273 71.6484 874.055 75.1641C874.836 78.5495 875.878 81.8047 877.18 84.9297C878.482 84.9297 879.263 84.9948 879.523 85.125C881.086 84.474 882.909 84.0833 884.992 83.9531L887.531 83.7578L888.312 86.1016C888.573 86.4922 888.898 86.8828 889.289 87.2734C889.68 87.6641 890.135 88.0547 890.656 88.4453C892.74 88.5755 894.237 89.0312 895.148 89.8125C896.19 90.4635 897.036 91.1146 897.688 91.7656C897.948 92.026 898.273 92.3516 898.664 92.7422C899.055 93.0026 899.38 93.1979 899.641 93.3281L903.156 94.6953L901.203 98.4062C899.771 101.141 897.557 103.81 894.562 106.414C891.698 109.018 888.443 111.167 884.797 112.859C885.057 113.771 885.188 114.617 885.188 115.398C885.318 116.18 885.513 117.091 885.773 118.133C886.294 120.737 886.685 123.471 886.945 126.336C887.336 129.07 887.336 131.935 886.945 134.93C885.643 138.315 884.081 141.375 882.258 144.109C880.565 146.714 878.482 149.122 876.008 151.336C873.664 153.419 870.995 155.177 868 156.609C865.005 157.911 861.88 158.628 858.625 158.758C856.802 158.367 855.435 157.911 854.523 157.391C853.742 156.87 853.026 156.349 852.375 155.828C851.333 155.047 850.487 154.526 849.836 154.266L847.297 153.094L848.078 150.164C848.469 149.122 848.404 148.211 847.883 147.43C847.492 146.648 846.581 145.607 845.148 144.305C844.628 143.914 844.172 143.523 843.781 143.133C843.391 142.612 842.935 142.091 842.414 141.57L838.508 137.078L844.953 135.32C848.859 134.279 851.464 132.977 852.766 131.414C854.068 129.721 854.589 126.792 854.328 122.625C851.073 121.974 848.404 121.909 846.32 122.43C844.237 122.82 842.154 123.276 840.07 123.797C837.076 124.578 834.146 125.294 831.281 125.945C828.417 126.466 825.292 126.727 821.906 126.727C819.693 126.727 817.349 126.531 814.875 126.141L812.727 125.945L812.141 123.797C812.141 123.536 811.945 123.276 811.555 123.016C811.294 122.625 811.034 122.299 810.773 122.039C810.122 121.258 809.341 120.216 808.43 118.914C807.518 117.612 807.323 115.984 807.844 114.031C806.932 112.599 806.411 111.102 806.281 109.539C805.76 110.581 805.305 111.622 804.914 112.664C804.654 113.576 804.393 114.487 804.133 115.398L803.352 117.938L800.812 118.328C800.552 118.589 800.292 118.979 800.031 119.5C799.901 120.021 799.901 120.411 800.031 120.672L800.812 122.82L798.859 124.578C798.599 124.969 798.273 125.294 797.883 125.555C797.492 125.815 797.167 126.076 796.906 126.336C796.646 127.768 796.255 129.135 795.734 130.438C795.344 131.74 794.888 133.042 794.367 134.344C793.716 136.427 793.065 138.445 792.414 140.398C791.893 142.352 791.633 144.305 791.633 146.258L790.852 148.797C790.201 149.839 789.354 150.62 788.312 151.141C787.401 151.661 786.49 152.117 785.578 152.508C784.276 153.029 783.365 153.549 782.844 154.07L782.258 156.609L779.328 157C777.635 157.391 776.398 157.651 775.617 157.781C774.966 157.911 774.185 157.977 773.273 157.977L770.734 157.781C769.172 156.219 767.87 155.047 766.828 154.266C765.917 153.354 764.81 152.573 763.508 151.922L762.336 150.359C761.815 149.318 761.49 148.406 761.359 147.625C761.229 146.714 761.034 145.802 760.773 144.891C760.513 143.198 760.122 142.026 759.602 141.375L756.672 138.445ZM818.977 87.6641C817.154 90.2682 815.396 93.0026 813.703 95.8672C814.615 95.737 815.461 95.6719 816.242 95.6719C817.154 95.6719 818.065 95.6068 818.977 95.4766C823.534 95.2161 827.766 94.8906 831.672 94.5C835.578 94.1094 839.81 93.4583 844.367 92.5469C843.326 87.7292 842.154 82.8464 840.852 77.8984C839.68 72.8203 838.378 67.7422 836.945 62.6641L835.969 64.6172C832.714 68.1328 829.589 71.9089 826.594 75.9453C823.599 79.9818 821.125 83.8229 819.172 87.4688L818.977 87.6641ZM907.648 140.203C906.997 140.333 906.411 139.878 905.891 138.836C905.37 137.664 904.784 136.557 904.133 135.516H906.281C905.37 132.651 905.109 130.047 905.5 127.703C906.021 125.229 906.607 122.885 907.258 120.672C907.909 118.328 908.43 116.115 908.82 114.031C909.341 111.818 909.146 109.539 908.234 107.195C908.885 107.586 909.341 107.456 909.602 106.805C909.992 106.023 910.253 105.112 910.383 104.07C910.643 102.898 910.708 101.727 910.578 100.555C910.578 99.2526 910.513 98.2109 910.383 97.4297C912.076 93.3932 913.378 89.2266 914.289 84.9297C915.331 80.6328 916.242 76.401 917.023 72.2344C917.805 67.9375 918.651 63.8359 919.562 59.9297C920.604 55.8932 921.906 52.1172 923.469 48.6016C925.292 48.3411 927.18 48.6016 929.133 49.3828C931.216 50.0339 932.583 50.8802 933.234 51.9219C937.271 48.7969 940.852 45.0208 943.977 40.5938C947.102 36.1667 950.227 31.8698 953.352 27.7031C956.607 23.4062 960.253 19.6302 964.289 16.375C968.326 13.1198 973.339 11.1667 979.328 10.5156C982.453 12.7292 985.969 15.138 989.875 17.7422C993.781 20.2161 996.971 23.3411 999.445 27.1172C1000.49 27.7682 1001.46 28.4844 1002.38 29.2656C1003.42 29.9167 1004.46 30.5677 1005.5 31.2188V34.1484C1007.32 35.8411 1008.82 37.8594 1009.99 40.2031C1011.29 42.4167 1012.4 44.8255 1013.31 47.4297C1014.35 49.9036 1015.33 52.4427 1016.24 55.0469C1017.15 57.651 1018.2 60.0599 1019.37 62.2734C1019.11 63.0547 1018.98 63.7708 1018.98 64.4219C1019.11 64.9427 1019.24 65.5286 1019.37 66.1797C1019.63 66.7005 1019.82 67.3516 1019.95 68.1328C1020.08 68.7839 1020.15 69.6302 1020.15 70.6719C1019.63 77.5729 1017.35 83.1719 1013.31 87.4688C1009.41 91.6354 1004.59 95.0859 998.859 97.8203C993.26 100.424 987.271 102.703 980.891 104.656C974.51 106.479 968.716 108.497 963.508 110.711C963.508 111.232 963.768 111.492 964.289 111.492C964.94 111.492 965.135 111.883 964.875 112.664C968.781 115.008 971.776 116.896 973.859 118.328C976.073 119.76 978.091 120.997 979.914 122.039C981.867 122.951 983.951 123.732 986.164 124.383C988.508 125.034 991.698 125.815 995.734 126.727C999.771 127.638 1002.9 128.419 1005.11 129.07C1007.45 129.591 1009.54 130.047 1011.36 130.438C1013.18 130.698 1015.14 130.958 1017.22 131.219C1019.3 131.479 1022.1 131.805 1025.62 132.195C1027.05 133.628 1028.22 135.32 1029.13 137.273C1030.04 139.227 1030.7 141.18 1031.09 143.133C1031.48 145.086 1031.54 146.974 1031.28 148.797C1031.15 150.49 1030.63 151.857 1029.72 152.898C1029.85 153.419 1030.17 153.68 1030.7 153.68C1031.35 153.549 1032 153.549 1032.65 153.68C1031.74 154.331 1030.96 155.112 1030.3 156.023C1029.65 156.935 1029 157.846 1028.35 158.758C1027.7 159.669 1026.92 160.516 1026.01 161.297C1025.23 162.078 1024.18 162.534 1022.88 162.664C1018.2 164.487 1012.21 164.552 1004.91 162.859C997.622 161.167 988.312 158.172 976.984 153.875C971.385 151.792 966.828 149.904 963.312 148.211C959.797 146.518 956.737 144.891 954.133 143.328C951.529 141.635 949.12 139.878 946.906 138.055C944.693 136.102 942.154 133.823 939.289 131.219C938.898 131.349 938.638 131.609 938.508 132C938.508 132.391 938.312 132.651 937.922 132.781C937.271 137.99 936.229 142.221 934.797 145.477C933.495 148.732 931.542 152.052 928.938 155.438C926.854 155.047 925.422 155.242 924.641 156.023C923.99 156.805 923.143 157.521 922.102 158.172C920.799 158.432 919.823 158.367 919.172 157.977C918.521 157.716 917.935 157.391 917.414 157C916.893 156.609 916.307 156.219 915.656 155.828C915.005 155.438 913.964 155.307 912.531 155.438C912.141 154.266 911.75 153.159 911.359 152.117C910.969 150.945 909.927 150.424 908.234 150.555C908.625 149.383 908.755 148.406 908.625 147.625C908.495 146.714 908.299 145.932 908.039 145.281C907.779 144.5 907.518 143.719 907.258 142.938C907.128 142.156 907.258 141.245 907.648 140.203ZM972.883 50.9453C971.19 53.4193 969.302 55.6979 967.219 57.7812C965.135 59.7344 963.052 61.8177 960.969 64.0312C959.016 66.1146 957.258 68.4583 955.695 71.0625C954.133 73.5365 953.026 76.5312 952.375 80.0469C957.844 79.3958 963.573 77.8984 969.562 75.5547C975.552 73.0807 981.216 70.737 986.555 68.5234C985.904 63.7057 984.211 59.8646 981.477 57C978.742 54.0052 975.878 51.987 972.883 50.9453ZM1028.74 159.344C1026.92 158.172 1025.49 156.674 1024.45 154.852C1023.27 153.029 1022.36 151.076 1021.71 148.992C1020.93 146.909 1020.34 144.76 1019.95 142.547C1019.43 140.203 1018.91 137.99 1018.39 135.906C1018.39 134.083 1018.78 132.781 1019.56 132C1020.34 131.089 1021.19 130.242 1022.1 129.461C1025.23 129.331 1028.03 129.07 1030.5 128.68C1032.97 128.289 1035.38 127.898 1037.73 127.508C1040.07 127.117 1042.41 126.792 1044.76 126.531C1047.1 126.141 1049.64 125.945 1052.38 125.945C1054.33 121.909 1056.15 118.068 1057.84 114.422C1059.54 110.646 1061.16 107.065 1062.73 103.68C1063.51 100.424 1064.48 97.4297 1065.66 94.6953C1066.96 91.8307 1068.2 89.1615 1069.37 86.6875C1070.54 84.0833 1071.58 81.5443 1072.49 79.0703C1073.4 76.4661 1073.99 73.7318 1074.25 70.8672C1075.81 66.3099 1077.18 62.1432 1078.35 58.3672C1079.65 54.4609 1080.63 49.8385 1081.28 44.5C1076.33 45.2812 1072.36 46.0625 1069.37 46.8438C1066.37 47.4948 1064.22 48.1458 1062.92 48.7969C1060.32 48.6667 1058.23 48.1458 1056.67 47.2344C1055.24 46.3229 1054.07 45.2161 1053.16 43.9141C1052.24 42.612 1051.46 41.1146 1050.81 39.4219C1050.16 37.7292 1049.38 35.9714 1048.47 34.1484C1048.99 32.9766 1049.12 31.2839 1048.86 29.0703C1048.6 26.7266 1047.82 25.0339 1046.52 23.9922C1047.56 23.7318 1048.34 22.8854 1048.86 21.4531C1049.38 19.8906 1049.45 18.7188 1049.05 17.9375C1051.27 17.2865 1053.61 16.8958 1056.09 16.7656C1058.56 16.5052 1060.97 16.3099 1063.31 16.1797C1065.79 15.9193 1068.13 15.6589 1070.34 15.3984C1072.56 15.0078 1074.45 14.2917 1076.01 13.25C1082.78 12.9896 1089.81 12.7292 1097.1 12.4688C1104.52 12.2083 1111.36 11.8828 1117.61 11.4922C1119.95 12.2734 1122.62 12.6641 1125.62 12.6641C1128.74 12.6641 1131.8 12.8594 1134.8 13.25C1137.92 13.6406 1140.66 14.487 1143 15.7891C1145.47 17.0911 1147.17 19.3698 1148.08 22.625C1150.03 22.8854 1151.46 23.4062 1152.38 24.1875C1153.42 24.9688 1154.07 25.9453 1154.33 27.1172C1154.59 28.1589 1154.65 29.3958 1154.52 30.8281C1154.52 32.1302 1154.52 33.4323 1154.52 34.7344C1152.44 36.2969 1149.77 37.599 1146.52 38.6406C1143.39 39.5521 1139.94 40.3333 1136.16 40.9844C1132.39 41.5052 1128.42 41.8958 1124.25 42.1562C1120.21 42.2865 1116.24 42.4167 1112.34 42.5469C1111.68 46.8438 1110.51 51.9219 1108.82 57.7812C1107.26 63.5104 1105.63 69.1745 1103.94 74.7734C1102.24 80.2422 1100.75 85.1901 1099.45 89.6172C1098.27 93.9141 1097.75 96.7135 1097.88 98.0156C1096.58 101.01 1095.47 103.549 1094.56 105.633C1093.78 107.716 1093 109.669 1092.22 111.492C1091.57 113.315 1090.85 115.138 1090.07 116.961C1089.42 118.654 1088.57 120.607 1087.53 122.82H1100.81C1101.07 124.253 1101.66 125.229 1102.57 125.75C1103.48 126.271 1104.46 126.727 1105.5 127.117C1106.54 127.508 1107.45 128.029 1108.23 128.68C1109.15 129.201 1109.6 130.112 1109.6 131.414C1112.08 132.065 1113.64 133.042 1114.29 134.344C1114.94 135.646 1115.07 137.078 1114.68 138.641C1114.42 140.073 1113.77 141.57 1112.73 143.133C1111.82 144.695 1110.9 146.062 1109.99 147.234C1108.82 146.974 1107.71 147.299 1106.67 148.211C1105.63 148.992 1104.65 149.904 1103.74 150.945C1099.97 150.424 1096.26 150.359 1092.61 150.75C1088.96 151.141 1085.58 151.466 1082.45 151.727C1081.8 151.857 1081.54 152.247 1081.67 152.898C1081.8 153.419 1081.67 153.81 1081.28 154.07C1077.24 152.768 1073.08 152.247 1068.78 152.508C1064.61 152.768 1060.32 153.419 1055.89 154.461C1051.59 155.372 1047.17 156.349 1042.61 157.391C1038.05 158.562 1033.43 159.214 1028.74 159.344Z" fill="white"/>
<path d="M1128.55 110.711C1128.55 109.279 1128.74 107.977 1129.13 106.805C1129.52 105.633 1129.59 104.135 1129.33 102.312C1133.36 93.7188 1137.92 85.776 1143 78.4844C1148.21 71.0625 1154.39 64.5521 1161.55 58.9531C1162.73 58.0417 1163.64 57.1302 1164.29 56.2188C1165.07 55.1771 1165.79 54.2005 1166.44 53.2891C1167.22 52.3776 1168.07 51.5964 1168.98 50.9453C1169.89 50.1641 1171.06 49.6432 1172.49 49.3828C1175.75 45.6068 1179.65 42.1562 1184.21 39.0312C1188.77 35.9062 1193.52 32.9115 1198.47 30.0469C1203.42 27.1823 1208.36 24.2526 1213.31 21.2578C1218.39 18.263 1222.95 15.0078 1226.98 11.4922C1228.42 12.4036 1229.52 12.7292 1230.3 12.4688C1231.22 12.0781 1232.13 12.013 1233.04 12.2734C1234.21 14.7474 1235.71 16.5052 1237.53 17.5469C1239.48 18.4583 1241.44 19.4349 1243.39 20.4766C1245.47 21.388 1247.36 22.5599 1249.05 23.9922C1250.88 25.2943 1252.24 27.1172 1253.16 29.4609C1252.24 29.4609 1251.79 29.7865 1251.79 30.4375C1251.92 31.0885 1252.11 31.8047 1252.38 32.5859C1252.64 33.3672 1252.77 34.0833 1252.77 34.7344C1252.77 35.3854 1252.18 35.7109 1251.01 35.7109C1251.01 36.6224 1251.46 37.0781 1252.38 37.0781C1253.29 37.0781 1253.74 37.5339 1253.74 38.4453C1253.74 39.2266 1253.55 39.8776 1253.16 40.3984C1252.9 40.7891 1252.9 41.5052 1253.16 42.5469C1250.03 44.6302 1246.52 46.6484 1242.61 48.6016C1238.83 50.4245 1234.8 52.3776 1230.5 54.4609C1226.33 56.5443 1222.04 58.8229 1217.61 61.2969C1213.31 63.6406 1209.02 66.375 1204.72 69.5C1200.42 72.625 1196.06 76.0755 1191.63 79.8516C1187.34 83.6276 1183.17 87.6641 1179.13 91.9609C1175.1 96.1276 1171.32 100.49 1167.8 105.047C1164.29 109.474 1161.29 113.836 1158.82 118.133C1159.08 118.784 1159.41 119.37 1159.8 119.891C1160.32 120.411 1160.71 120.997 1160.97 121.648C1165.92 121.909 1170.54 121.909 1174.84 121.648C1179.13 121.258 1183.43 121.518 1187.73 122.43C1188.25 122.039 1188.57 121.518 1188.7 120.867C1188.83 120.216 1189.22 119.76 1189.88 119.5C1198.73 118.589 1207 117.156 1214.68 115.203C1222.36 113.12 1230.17 111.036 1238.12 108.953C1235.77 108.042 1233.69 107.326 1231.87 106.805C1231.09 106.023 1231.09 105.372 1231.87 104.852C1232.78 104.201 1233.49 103.549 1234.02 102.898C1231.93 101.727 1230.17 100.164 1228.74 98.2109C1227.44 96.2578 1226.66 93.7188 1226.4 90.5938C1227.31 89.8125 1227.77 88.901 1227.77 87.8594C1227.77 86.8177 1227.31 85.9714 1226.4 85.3203C1225.75 85.0599 1225.36 85.0599 1225.23 85.3203C1225.1 85.5807 1224.97 85.8411 1224.84 86.1016C1224.84 86.362 1224.71 86.6224 1224.45 86.8828C1224.32 87.1432 1223.99 87.1432 1223.47 86.8828C1223.6 85.4505 1223.92 84.2786 1224.45 83.3672C1224.97 82.4557 1225.36 81.349 1225.62 80.0469L1241.83 69.3047C1243.52 70.6068 1245.6 71.974 1248.08 73.4062C1250.55 74.8385 1253.16 76.2708 1255.89 77.7031C1258.62 79.1354 1261.42 80.6328 1264.29 82.1953C1267.15 83.6276 1269.82 85.0599 1272.3 86.4922C1274.64 87.5339 1276.66 88.8359 1278.35 90.3984C1280.04 91.8307 1281.67 93.3932 1283.23 95.0859C1284.8 96.6484 1286.36 98.2109 1287.92 99.7734C1289.48 101.336 1291.37 102.638 1293.59 103.68C1293.33 105.763 1293.46 107.456 1293.98 108.758C1294.5 110.06 1294.63 111.622 1294.37 113.445C1291.89 117.872 1288.9 121.648 1285.38 124.773C1281.87 127.768 1277.9 130.372 1273.47 132.586C1269.17 134.799 1264.55 136.688 1259.6 138.25C1254.65 139.682 1249.58 141.115 1244.37 142.547C1239.16 143.849 1233.89 145.281 1228.55 146.844C1223.34 148.276 1218.2 149.969 1213.12 151.922C1210.9 151.922 1209.02 151.987 1207.45 152.117C1205.89 152.247 1204.39 152.443 1202.96 152.703C1201.53 152.964 1200.1 153.224 1198.66 153.484C1197.23 153.745 1195.67 153.94 1193.98 154.07C1193.33 153.94 1192.87 154.07 1192.61 154.461C1192.48 154.852 1192.22 155.177 1191.83 155.438C1189.22 155.828 1186.88 156.023 1184.8 156.023C1182.71 156.023 1180.96 156.023 1179.52 156.023C1177.7 156.023 1175.81 156.284 1173.86 156.805C1171.91 157.326 1170.08 157.521 1168.39 157.391C1156.67 156.87 1147.49 152.703 1140.85 144.891C1134.21 137.078 1130.57 126.336 1129.91 112.664C1130.04 112.013 1129.91 111.622 1129.52 111.492C1129.13 111.232 1128.81 110.971 1128.55 110.711ZM1333.43 157.781C1327.7 158.562 1322.49 158.302 1317.8 157C1313.12 155.698 1308.89 153.68 1305.11 150.945C1301.46 148.211 1298.27 144.956 1295.54 141.18C1292.93 137.404 1290.79 133.367 1289.09 129.07C1287.92 120.216 1288.25 112.208 1290.07 105.047C1291.89 97.7552 1294.56 91.0495 1298.08 84.9297C1301.59 78.8099 1305.57 73.0807 1309.99 67.7422C1314.55 62.4036 1318.91 57.2604 1323.08 52.3125C1323.99 52.7031 1324.71 52.7031 1325.23 52.3125C1325.88 51.9219 1326.4 51.401 1326.79 50.75C1327.31 50.099 1327.83 49.4479 1328.35 48.7969C1329 48.1458 1329.72 47.6901 1330.5 47.4297C1331.02 46.2578 1331.67 45.2812 1332.45 44.5C1333.36 43.7188 1334.28 43.0026 1335.19 42.3516C1336.23 41.5703 1337.14 40.7891 1337.92 40.0078C1338.83 39.2266 1339.61 38.25 1340.27 37.0781C1341.57 36.8177 1342.67 36.362 1343.59 35.7109C1344.63 35.0599 1345.54 34.3438 1346.32 33.5625C1347.23 32.7812 1348.14 32.0651 1349.05 31.4141C1349.97 30.763 1351.07 30.2422 1352.38 29.8516V27.3125C1355.24 26.0104 1357.32 24.5781 1358.62 23.0156C1359.93 21.4531 1361.49 19.4349 1363.31 16.9609C1364.74 16.8307 1365.85 16.7656 1366.63 16.7656C1367.54 16.7656 1368.91 16.6354 1370.73 16.375C1371.91 14.1615 1373.01 12.5339 1374.05 11.4922C1375.1 10.4505 1376.59 9.27865 1378.55 7.97656C1380.5 9.01823 1382.58 9.66927 1384.8 9.92969C1387.01 10.0599 1389.03 11.0365 1390.85 12.8594C1390.98 14.4219 1391.44 15.6589 1392.22 16.5703C1393 17.3516 1393.85 18.1328 1394.76 18.9141C1395.67 19.5651 1396.58 20.2812 1397.49 21.0625C1398.4 21.8438 1398.99 22.9505 1399.25 24.3828C1399.9 24.3828 1400.29 24.2526 1400.42 23.9922C1400.68 23.7318 1401.14 23.6667 1401.79 23.7969C1402.05 24.8385 1402.31 25.6849 1402.57 26.3359C1402.83 26.987 1403.09 27.5729 1403.35 28.0938C1403.74 28.6146 1404.07 29.2005 1404.33 29.8516C1404.72 30.5026 1405.04 31.2839 1405.3 32.1953C1404.65 33.7578 1404.07 35.4505 1403.55 37.2734C1403.03 38.9661 1401.98 40.138 1400.42 40.7891C1400.42 41.8307 1400.81 42.4167 1401.59 42.5469C1402.38 42.5469 1402.83 43.0026 1402.96 43.9141C1403.09 45.0859 1402.9 46.0625 1402.38 46.8438C1406.02 52.9635 1409.34 59.4089 1412.34 66.1797C1415.33 72.8203 1418.72 79.2005 1422.49 85.3203C1422.23 87.1432 1422.3 88.9661 1422.69 90.7891C1423.21 92.4818 1423.79 94.1745 1424.45 95.8672C1425.23 97.5599 1425.94 99.2526 1426.59 100.945C1427.24 102.638 1427.7 104.331 1427.96 106.023C1428.22 108.237 1428.22 110.646 1427.96 113.25C1427.7 115.724 1427.18 118.133 1426.4 120.477C1425.62 122.82 1424.58 125.034 1423.27 127.117C1421.97 129.07 1420.47 130.568 1418.78 131.609C1416.7 134.214 1414.09 136.362 1410.97 138.055C1407.84 139.617 1404.98 141.505 1402.38 143.719C1400.55 144.76 1398.6 145.542 1396.52 146.062C1394.43 146.453 1392.28 146.909 1390.07 147.43C1388.38 148.471 1386.36 149.513 1384.02 150.555C1381.67 151.466 1379.26 152.312 1376.79 153.094C1374.32 153.875 1371.84 154.526 1369.37 155.047C1366.89 155.438 1364.68 155.503 1362.73 155.242C1358.04 156.935 1353.48 158.107 1349.05 158.758C1344.63 159.409 1339.42 159.083 1333.43 157.781ZM1335.97 86.6875C1334.67 89.6823 1333.1 92.4167 1331.28 94.8906C1329.59 97.2344 1327.9 99.6432 1326.2 102.117C1324.51 104.591 1323.01 107.26 1321.71 110.125C1320.54 112.859 1319.89 116.115 1319.76 119.891C1322.36 122.104 1325.42 123.471 1328.94 123.992C1332.58 124.383 1336.29 124.448 1340.07 124.188C1343.85 123.797 1347.62 123.276 1351.4 122.625C1355.17 121.974 1358.56 121.648 1361.55 121.648C1361.55 120.477 1362.08 119.891 1363.12 119.891C1368.59 119.37 1373.66 117.872 1378.35 115.398C1383.04 112.794 1387.92 110.19 1393 107.586C1393.65 106.023 1394.5 104.656 1395.54 103.484C1396.58 102.312 1397.17 100.62 1397.3 98.4062C1396.65 97.2344 1396.19 96.2578 1395.93 95.4766C1395.8 94.6953 1395.73 93.5234 1395.73 91.9609C1392.35 87.2734 1389.42 82.1953 1386.95 76.7266C1384.47 71.1276 1381.61 65.8542 1378.35 60.9062C1378.09 61.5573 1377.57 62.2083 1376.79 62.8594C1376.01 63.5104 1375.16 63.3802 1374.25 62.4688C1373.86 63.7708 1373.27 64.6823 1372.49 65.2031C1371.71 65.5938 1370.8 65.7891 1369.76 65.7891C1368.85 65.7891 1367.87 65.5938 1366.83 65.2031C1365.92 64.8125 1365.07 64.2917 1364.29 63.6406C1359.73 67.2865 1355.17 70.8021 1350.62 74.1875C1346.19 77.5729 1342.15 81.5443 1338.51 86.1016C1337.86 86.4922 1337.47 86.6224 1337.34 86.4922C1337.21 86.362 1336.75 86.4271 1335.97 86.6875Z" fill="#F7C702"/>
<path d="M410.715 305V246.775H427.12L440.125 292.25L453.13 246.775H469.62V305H460.1V257.23H458.825L445.055 302.62H435.195L421.425 257.23H420.15V305H410.715ZM479.192 305L493.557 246.775H512.342L526.792 305H517.272L514.127 292.505H491.772L488.627 305H479.192ZM500.867 254.68L493.642 284.175H512.257L505.117 254.68H500.867ZM531.266 311.035V302.705C534.269 302.705 536.309 302.252 537.386 301.345C538.519 300.438 539.086 298.427 539.086 295.31V246.775H548.436L548.521 295.99C548.521 302.053 547.246 306.077 544.696 308.06C542.146 310.043 537.669 311.035 531.266 311.035ZM562.792 305V246.775H599.512V255.02H572.227V271.51H594.412V279.67H572.227V296.67H599.512V305H562.792ZM628.134 254.085C620.938 254.085 617.339 256.607 617.339 261.65C617.339 264.257 618.189 266.127 619.889 267.26C621.589 268.337 625.329 269.697 631.109 271.34C636.946 272.927 641.054 274.853 643.434 277.12C645.814 279.33 647.004 282.843 647.004 287.66C647.004 293.78 645.248 298.37 641.734 301.43C638.278 304.433 633.546 305.935 627.539 305.935C622.723 305.935 617.396 305.368 611.559 304.235L608.499 303.64L609.434 296.075C617.084 297.095 622.921 297.605 626.944 297.605C633.971 297.605 637.484 294.488 637.484 288.255C637.484 285.818 636.691 284.033 635.104 282.9C633.518 281.71 629.948 280.435 624.394 279.075C618.841 277.658 614.704 275.732 611.984 273.295C609.264 270.858 607.904 267.005 607.904 261.735C607.904 256.465 609.604 252.498 613.004 249.835C616.461 247.115 621.221 245.755 627.284 245.755C631.648 245.755 636.804 246.265 642.754 247.285L645.729 247.795L644.964 255.445C637.031 254.538 631.421 254.085 628.134 254.085ZM652.867 255.19V246.775H695.367V255.19H678.962V305H669.442V255.19H652.867ZM725.913 305H716.393V281.03L698.118 246.775H708.743L721.068 271.765L733.478 246.775H744.018L725.913 281.03V305ZM782.485 292.675C784.412 296.018 788.095 297.69 793.535 297.69C798.975 297.69 802.63 296.047 804.5 292.76C806.427 289.473 807.39 283.977 807.39 276.27C807.39 268.507 806.398 262.868 804.415 259.355C802.488 255.842 798.862 254.085 793.535 254.085C788.208 254.085 784.553 255.842 782.57 259.355C780.587 262.868 779.595 268.478 779.595 276.185C779.595 283.835 780.558 289.332 782.485 292.675ZM811.895 298.795C808.438 303.555 802.318 305.935 793.535 305.935C784.752 305.935 778.603 303.555 775.09 298.795C771.577 293.978 769.82 286.442 769.82 276.185C769.82 265.928 771.577 258.307 775.09 253.32C778.66 248.333 784.808 245.84 793.535 245.84C802.262 245.84 808.382 248.333 811.895 253.32C815.408 258.25 817.165 265.872 817.165 276.185C817.165 286.498 815.408 294.035 811.895 298.795ZM829.426 305V246.775H865.551V255.02H838.861V274.655H861.046V282.9H838.861V305H829.426ZM890.033 255.19V246.775H932.533V255.19H916.128V305H906.608V255.19H890.033ZM976.255 305V279.84H951.095V305H941.66V246.775H951.095V271.595H976.255V246.775H985.775V305H976.255ZM1000.38 305V246.775H1037.1V255.02H1009.81V271.51H1032V279.67H1009.81V296.67H1037.1V305H1000.38ZM1083.86 246.775H1093.81L1102.14 296.84H1103.92L1114.97 246.945H1126.02L1137.07 296.84H1138.94L1147.27 246.775H1157.22L1145.74 305H1130.53L1120.5 258.335L1110.55 305H1095.25L1083.86 246.775ZM1167.26 305V246.775H1176.69V305H1167.26ZM1224 305H1191.36V246.775H1200.8V296.585H1224V305ZM1253.12 305H1232.98V246.775H1253.12C1262.08 246.775 1268.2 249.042 1271.48 253.575C1274.77 258.108 1276.41 265.22 1276.41 274.91C1276.41 279.84 1276.07 284.033 1275.39 287.49C1274.77 290.89 1273.64 293.978 1271.99 296.755C1268.76 302.252 1262.47 305 1253.12 305ZM1266.64 274.91C1266.64 267.883 1265.76 262.812 1264 259.695C1262.25 256.578 1258.62 255.02 1253.12 255.02H1242.41V296.67H1253.12C1258.73 296.67 1262.47 294.602 1264.34 290.465C1265.25 288.368 1265.84 286.13 1266.13 283.75C1266.47 281.37 1266.64 278.423 1266.64 274.91ZM1321.35 305H1288.71V246.775H1298.14V296.585H1321.35V305ZM1330.32 305V246.775H1339.76V305H1330.32ZM1354.42 305V246.775H1390.55V255.02H1363.86V274.655H1386.04V282.9H1363.86V305H1354.42ZM1400.69 305V246.775H1437.41V255.02H1410.12V271.51H1432.31V279.67H1410.12V296.67H1437.41V305H1400.69Z" fill="white" fill-opacity="0.6"/>
<path d="M152.5 63.1445C103.229 63.1445 63.1445 103.229 63.1445 152.5C63.1445 201.77 103.229 241.855 152.5 241.855C201.77 241.855 241.855 201.77 241.855 152.5C241.855 103.229 201.77 63.1445 152.5 63.1445V63.1445ZM152.5 229.941C109.798 229.941 75.0585 195.201 75.0585 152.5C75.0585 109.798 109.799 75.0585 152.5 75.0585C195.201 75.0585 229.941 109.798 229.941 152.5C229.941 195.201 195.201 229.941 152.5 229.941Z" fill="#F7C702"/>
<path d="M46.1661 181.673C47.1949 181.673 48.2231 181.408 49.1446 180.875C50.9877 179.811 52.1231 177.844 52.1231 175.716V129.285C52.1231 127.157 50.9877 125.19 49.1446 124.127C47.3015 123.062 45.0307 123.062 43.1876 124.127L2.97754 147.342C1.13444 148.406 -0.000976562 150.373 -0.000976562 152.501C-0.000976562 154.63 1.13444 156.596 2.97754 157.66L43.1876 180.875C44.1091 181.407 45.1379 181.673 46.1661 181.673V181.673ZM40.209 165.398L17.8701 152.501L40.209 139.604V165.398Z" fill="#F7C702"/>
<path d="M65.107 207.06C63.6016 205.555 61.4077 204.966 59.3525 205.518C57.2967 206.07 55.6913 207.675 55.1403 209.731L43.1231 254.579C42.5721 256.634 43.1601 258.828 44.6648 260.333C45.7966 261.464 47.3181 262.078 48.8776 262.078C49.3917 262.078 49.9094 262.011 50.4193 261.874L95.2675 249.857C97.3233 249.306 98.9287 247.701 99.4797 245.645C100.031 243.59 99.4428 241.396 97.938 239.891L65.107 207.06ZM57.3021 247.696L63.9781 222.781L82.2174 241.02L57.3021 247.696Z" fill="#F7C702"/>
<path d="M175.714 252.875H129.283C127.155 252.875 125.188 254.01 124.125 255.854C123.06 257.697 123.06 259.967 124.125 261.811L147.34 302.021C148.404 303.864 150.37 304.999 152.499 304.999C154.627 304.999 156.593 303.864 157.657 302.021L180.873 261.811C181.937 259.967 181.937 257.697 180.873 255.854C179.809 254.01 177.842 252.875 175.714 252.875V252.875ZM152.499 287.128L139.602 264.789H165.396L152.499 287.128Z" fill="#F7C702"/>
<path d="M249.858 209.732C249.308 207.676 247.702 206.071 245.646 205.52C243.589 204.968 241.397 205.557 239.891 207.061L207.06 239.892C205.556 241.397 204.968 243.591 205.519 245.646C206.07 247.702 207.675 249.307 209.731 249.858L254.579 261.876C255.089 262.012 255.607 262.079 256.121 262.079C257.68 262.079 259.202 261.466 260.334 260.334C261.838 258.829 262.426 256.635 261.875 254.58L249.858 209.732ZM222.781 241.021L241.02 222.782L247.696 247.697L222.781 241.021Z" fill="#F7C702"/>
<path d="M302.022 147.342L261.812 124.127C259.968 123.062 257.698 123.062 255.854 124.127C254.011 125.19 252.876 127.157 252.876 129.285V175.716C252.876 177.844 254.011 179.811 255.854 180.874C256.776 181.407 257.804 181.673 258.833 181.673C259.861 181.673 260.89 181.407 261.812 180.874L302.022 157.659C303.865 156.595 305 154.629 305 152.501C305 150.373 303.865 148.406 302.022 147.342V147.342ZM264.79 165.398V139.603L287.129 152.501L264.79 165.398Z" fill="#F7C702"/>
<path d="M239.891 97.94C241.023 99.0712 242.545 99.6848 244.104 99.6848C244.618 99.6848 245.136 99.6187 245.646 99.4816C247.702 98.9306 249.307 97.3252 249.858 95.2694L261.875 50.4212C262.426 48.3661 261.838 46.1721 260.334 44.6673C258.828 43.162 256.635 42.5734 254.579 43.1257L209.731 55.1428C207.675 55.6938 206.07 57.2992 205.519 59.355C204.968 61.4102 205.556 63.6042 207.06 65.1089L239.891 97.94ZM247.696 57.304L241.02 82.2193L222.781 63.9801L247.696 57.304Z" fill="#F7C702"/>
<path d="M129.283 52.1241H175.714C177.842 52.1241 179.809 50.9887 180.873 49.1456C181.937 47.3025 181.937 45.0317 180.873 43.1885L157.658 2.97852C156.594 1.13541 154.628 0 152.499 0C150.371 0 148.404 1.13541 147.34 2.97852L124.125 43.1885C123.06 45.0317 123.06 47.3025 124.125 49.1456C125.188 50.9887 127.156 52.1241 129.283 52.1241ZM152.499 17.8711L165.396 40.21H139.601L152.499 17.8711Z" fill="#F7C702"/>
<path d="M55.1403 95.269C55.6907 97.3248 57.2967 98.9302 59.3525 99.4812C59.8624 99.6176 60.3801 99.6844 60.8942 99.6844C62.4531 99.6844 63.9745 99.0714 65.107 97.9395L97.938 65.1085C99.4428 63.6038 100.031 61.4098 99.4797 59.3546C98.9287 57.2988 97.3233 55.6934 95.2675 55.1424L50.4193 43.1252C48.3629 42.5736 46.1701 43.1628 44.6648 44.6669C43.1601 46.1717 42.5721 48.3656 43.1231 50.4208L55.1403 95.269ZM82.2174 63.9796L63.9781 82.2189L57.3021 57.3036L82.2174 63.9796Z" fill="#F7C702"/>
<path d="M122.715 152.5C122.715 168.924 136.076 182.285 152.5 182.285C168.924 182.285 182.285 168.924 182.285 152.5C182.285 136.076 168.924 122.715 152.5 122.715C136.076 122.715 122.715 136.076 122.715 152.5ZM170.371 152.5C170.371 162.354 162.354 170.371 152.499 170.371C142.645 170.371 134.628 162.354 134.628 152.5C134.628 142.646 142.645 134.629 152.499 134.629C162.354 134.629 170.371 142.646 170.371 152.5Z" fill="#F7C702"/>
<path d="M181.35 100.375C178.472 98.7804 174.847 99.8187 173.251 102.696C171.655 105.573 172.695 109.199 175.572 110.794C190.735 119.204 200.156 135.184 200.156 152.501C200.156 178.779 178.777 200.157 152.5 200.157C126.222 200.157 104.844 178.779 104.844 152.501C104.844 135.187 114.262 119.206 129.425 110.797C132.302 109.201 133.34 105.576 131.744 102.698C130.148 99.8205 126.522 98.7833 123.646 100.377C104.7 110.886 92.9297 130.858 92.9297 152.501C92.9297 185.348 119.653 212.071 152.5 212.071C185.347 212.071 212.07 185.348 212.07 152.501C212.069 130.856 200.299 110.884 181.35 100.375V100.375Z" fill="#F7C702"/>
<path d="M152.499 104.846C155.789 104.846 158.456 102.178 158.456 98.8887C158.456 95.5992 155.789 92.9316 152.499 92.9316H152.495C149.205 92.9316 146.54 95.5992 146.54 98.8887C146.54 102.178 149.209 104.846 152.499 104.846Z" fill="#F7C702"/>
</svg>
